<svg xmlns="http://www.w3.org/2000/svg" viewBox="0 0 512 512">
  <defs>
    <linearGradient id="g" x1="0%" y1="0%" x2="100%" y2="100%">
      <stop offset="0%" stop-color="#0f172a" />
      <stop offset="52%" stop-color="#0f766e" />
      <stop offset="100%" stop-color="#f97316" />
    </linearGradient>
  </defs>
  <rect width="512" height="512" rx="112" fill="url(#g)" />
  <path d="M132 122h154c42 0 76 34 76 76v190H209c-27 0-52 7-77 25V122Z" fill="#fff7ed" opacity="0.95"/>
  <path d="M380 122H226c-42 0-76 34-76 76v190h153c27 0 52 7 77 25V122Z" fill="#ffffff" opacity="0.88"/>
  <path d="M253 162v178" stroke="#0f172a" stroke-width="16" stroke-linecap="round"/>
  <path d="M183 217h48M183 255h48M183 293h48M279 217h59M279 255h59M279 293h59" stroke="#0f172a" stroke-width="14" stroke-linecap="round" opacity="0.82"/>
</svg>
